<?xml version="1.0" encoding="utf-8"?>
<!-- Generator: Adobe Illustrator 17.0.0, SVG Export Plug-In . SVG Version: 6.00 Build 0)  -->
<!DOCTYPE svg PUBLIC "-//W3C//DTD SVG 1.1//EN" "http://www.w3.org/Graphics/SVG/1.1/DTD/svg11.dtd">
<svg version="1.1" id="Layer_1" xmlns="http://www.w3.org/2000/svg" xmlns:xlink="http://www.w3.org/1999/xlink" x="0px" y="0px"
	 width="80px" height="80px" viewBox="0 0 80 80" enable-background="new 0 0 80 80" xml:space="preserve">
<path fill="#FFFFFF" d="M74.556,54.004c0.646-0.635,1.048-1.513,1.048-2.485c0-1.536-1.001-2.828-2.38-3.288V28.46l0.698-0.323
	l-0.698-0.315v-0.235h-0.529L39.447,12.732L3.684,28.509l34.849,15.766l32.491-14.814v18.77c-1.385,0.46-2.386,1.752-2.386,3.288
	c0,1.094,0.512,2.06,1.304,2.694c-0.745,2.293-1.816,6.92-1.06,12.99h2.863h1.1h2.829C76.459,60.93,75.296,56.21,74.556,54.004"/>
<path fill="#FFFFFF" d="M17.623,37.906v23.432c5.5,5.837,16.342,6.786,19.811,6.93v0.03c0,0,0.197,0,0.546-0.006
	c0.349,0.006,0.553,0.006,0.553,0.006v-0.03c3.469-0.144,14.305-1.093,19.805-6.93V37.906c0,0.166-17.064,8.073-20.358,9.604
	C34.686,45.979,17.623,38.072,17.623,37.906"/>
</svg>
