<?xml version="1.0" encoding="utf-8"?>
<!-- Generator: Adobe Illustrator 17.0.0, SVG Export Plug-In . SVG Version: 6.00 Build 0)  -->
<!DOCTYPE svg PUBLIC "-//W3C//DTD SVG 1.1//EN" "http://www.w3.org/Graphics/SVG/1.1/DTD/svg11.dtd">
<svg version="1.1" id="Layer_1" xmlns="http://www.w3.org/2000/svg" xmlns:xlink="http://www.w3.org/1999/xlink" x="0px" y="0px"
	 width="332.652px" height="55.947px" viewBox="0 0 332.652 55.947" enable-background="new 0 0 332.652 55.947"
	 xml:space="preserve">
<path fill="#FFFFFF" d="M41.008,3.077C27.263-3.96,10.409,1.482,3.374,15.232c-4.758,9.293-3.808,20.003,1.553,28.144L0,55.62
	l14.409-3.36c0.368,0.209,0.738,0.412,1.116,0.608c13.75,7.039,30.599,1.599,37.638-12.154
	C60.199,26.965,54.758,10.114,41.008,3.077z M38.356,38.816c-3.039,3.225-9.024,3.75-10.942,3.83v0.016c0,0-0.113,0-0.305-0.004
	c-0.194,0.004-0.302,0.004-0.302,0.004v-0.016c-1.917-0.08-7.909-0.605-10.946-3.83V25.869c0,0.091,9.427,4.461,11.248,5.306
	c1.819-0.846,11.247-5.215,11.247-5.306V38.816z M47.935,42.057h-1.563h-0.609h-1.58c-0.418-3.354,0.174-5.91,0.585-7.178
	c-0.437-0.35-0.719-0.883-0.719-1.489c0-0.849,0.553-1.562,1.316-1.817v-10.37l-17.951,8.185L8.158,20.678l19.76-8.717l18.371,8.207
	h0.292v0.13l0.387,0.174l-0.387,0.178v10.924c0.763,0.254,1.316,0.968,1.316,1.817c0,0.537-0.222,1.022-0.579,1.374
	C47.727,35.983,48.369,38.592,47.935,42.057z"/>
<path fill="#FFFFFF" d="M65.556,10.946h23.216v7.055H73.921v7.454h12.633v7H73.921v8.535h15.422v7.054H65.556V10.946z"/>
<path fill="#FFFFFF" d="M92.754,10.946h10.47c2.847,0,5.405,0.36,7.682,1.081c2.276,0.72,4.228,1.831,5.862,3.33
	c1.629,1.497,2.883,3.404,3.754,5.717c0.873,2.315,1.31,5.065,1.31,8.253c0,3.184-0.437,5.955-1.31,8.307
	c-0.871,2.351-2.105,4.296-3.697,5.833c-1.594,1.535-3.502,2.682-5.72,3.441c-2.219,0.759-4.696,1.138-7.425,1.138H92.754V10.946z
	 M102.713,41.273c1.592,0,3.035-0.208,4.324-0.626c1.29-0.416,2.389-1.088,3.3-2.02c0.913-0.926,1.624-2.152,2.134-3.669
	c0.512-1.518,0.77-3.393,0.77-5.632c0-2.203-0.258-4.05-0.77-5.552c-0.511-1.497-1.221-2.69-2.134-3.583
	c-0.91-0.889-2.01-1.526-3.3-1.907c-1.289-0.377-2.732-0.567-4.324-0.567h-1.592v23.556H102.713z"/>
<path fill="#FFFFFF" d="M125.814,10.946h8.421v20.766c0,3.644,0.548,6.187,1.649,7.625c1.098,1.443,2.694,2.163,4.781,2.163
	c2.087,0,3.698-0.72,4.835-2.163c1.139-1.438,1.708-3.981,1.708-7.625V10.946h8.081V30.86c0,6.223-1.244,10.757-3.728,13.6
	c-2.485,2.845-6.119,4.267-10.897,4.267c-4.818,0-8.499-1.422-11.039-4.267c-2.544-2.843-3.813-7.377-3.813-13.6V10.946z"/>
<path fill="#FFFFFF" d="M159.271,29.723c0-3.073,0.476-5.813,1.425-8.222c0.945-2.409,2.226-4.449,3.839-6.117
	c1.611-1.669,3.489-2.938,5.63-3.812c2.146-0.873,4.412-1.307,6.802-1.307c2.315,0,4.408,0.483,6.286,1.45
	c1.881,0.966,3.444,2.095,4.696,3.384l-4.609,5.176c-0.948-0.869-1.906-1.552-2.875-2.045c-0.965-0.493-2.093-0.741-3.383-0.741
	c-1.288,0-2.495,0.276-3.614,0.827c-1.119,0.549-2.097,1.337-2.928,2.36c-0.838,1.024-1.494,2.276-1.967,3.755
	c-0.475,1.482-0.71,3.151-0.71,5.008c0,3.832,0.817,6.8,2.447,8.906c1.628,2.102,3.814,3.157,6.544,3.157
	c1.517,0,2.844-0.305,3.98-0.909c1.137-0.608,2.164-1.402,3.074-2.392l4.61,5.068c-1.555,1.82-3.33,3.183-5.321,4.097
	c-1.99,0.909-4.144,1.363-6.459,1.363c-2.386,0-4.647-0.409-6.769-1.222c-2.125-0.813-3.986-2.019-5.577-3.614
	c-1.593-1.591-2.844-3.576-3.754-5.947C159.728,35.575,159.271,32.835,159.271,29.723z"/>
<path fill="#FFFFFF" d="M192.56,10.547h10.125c3.794,0,6.81,0.73,9.049,2.191c2.239,1.46,3.358,3.764,3.358,6.913
	c0,1.97-0.56,3.689-1.679,5.151c-1.119,1.459-2.779,2.473-4.979,3.042v0.228c2.769,0.419,4.95,1.375,6.544,2.876
	c1.592,1.498,2.39,3.556,2.39,6.174c0,1.817-0.335,3.411-0.997,4.778c-0.664,1.367-1.602,2.502-2.814,3.416
	c-1.216,0.91-2.679,1.591-4.382,2.048c-1.708,0.452-3.624,0.681-5.75,0.681H192.56V10.547z M201.663,27.048
	c3.868,0,6.636-0.617,8.305-1.849c1.672-1.231,2.505-3.101,2.505-5.603c0-2.429-0.891-4.185-2.675-5.263
	c-1.781-1.083-4.399-1.624-7.853-1.624h-6.768v14.339H201.663z M202.741,45.884c3.757,0,6.707-0.701,8.85-2.11
	c2.141-1.398,3.216-3.62,3.216-6.652c0-2.694-1.044-4.694-3.13-6.007c-2.084-1.307-5.066-1.963-8.935-1.963h-7.565v16.732H202.741z"
	/>
<path fill="#FFFFFF" d="M242.118,48.044l-10.185-17.238h-7.969v17.238h-2.616V10.547h10.755c1.859,0,3.544,0.179,5.062,0.54
	c1.516,0.362,2.806,0.939,3.871,1.735c1.061,0.797,1.885,1.82,2.475,3.072c0.586,1.253,0.882,2.771,0.882,4.555
	c0,2.994-0.866,5.345-2.589,7.053c-1.731,1.71-4.072,2.754-7.03,3.13l10.357,17.411H242.118z M231.42,28.64
	c3.337,0,5.89-0.672,7.652-2.018c1.766-1.346,2.647-3.405,2.647-6.172c0-2.809-0.892-4.79-2.677-5.948
	c-1.781-1.155-4.321-1.734-7.622-1.734h-7.456V28.64H231.42z"/>
<path fill="#FFFFFF" d="M269.468,35.186h-14.849l-4.437,12.858h-2.621l13.204-37.497h2.614l13.203,37.497h-2.733L269.468,35.186z
	 M268.729,32.967l-2.39-6.999c-0.757-2.238-1.478-4.383-2.162-6.431c-0.683-2.049-1.345-4.229-1.989-6.543h-0.23
	c-0.644,2.314-1.307,4.494-1.992,6.543c-0.681,2.048-1.406,4.192-2.16,6.431l-2.394,6.999H268.729z"/>
<path fill="#FFFFFF" d="M279.167,41.273c1.364,1.557,2.994,2.789,4.891,3.702c1.898,0.909,3.926,1.363,6.091,1.363
	c2.88,0,5.157-0.691,6.826-2.077c1.668-1.386,2.506-3.196,2.506-5.434c0-1.173-0.184-2.161-0.541-2.959
	c-0.361-0.797-0.846-1.489-1.453-2.077c-0.605-0.588-1.318-1.099-2.132-1.534c-0.818-0.437-1.68-0.864-2.589-1.282l-5.692-2.561
	c-0.837-0.341-1.698-0.756-2.589-1.253c-0.891-0.492-1.707-1.109-2.447-1.848c-0.739-0.739-1.357-1.61-1.849-2.616
	c-0.491-1.005-0.742-2.211-0.742-3.615c0-1.365,0.279-2.607,0.826-3.725c0.549-1.119,1.313-2.088,2.277-2.904
	c0.971-0.813,2.126-1.45,3.469-1.905c1.352-0.457,2.802-0.683,4.357-0.683c2.276,0,4.293,0.448,6.059,1.337
	c1.765,0.893,3.216,1.945,4.353,3.158l-1.478,1.765c-1.1-1.176-2.39-2.114-3.871-2.818c-1.48-0.7-3.17-1.053-5.063-1.053
	c-2.505,0-4.517,0.608-6.035,1.822c-1.515,1.215-2.275,2.845-2.275,4.893c0,1.103,0.207,2.031,0.629,2.79
	c0.414,0.759,0.948,1.414,1.592,1.962c0.646,0.552,1.348,1.025,2.106,1.424c0.759,0.396,1.478,0.748,2.16,1.051l5.693,2.505
	c1.06,0.453,2.067,0.966,3.015,1.535c0.95,0.572,1.781,1.234,2.502,1.993c0.721,0.759,1.299,1.66,1.733,2.701
	c0.438,1.046,0.657,2.287,0.657,3.73c0,1.438-0.284,2.775-0.853,4.01c-0.569,1.232-1.376,2.296-2.419,3.186
	c-1.04,0.892-2.305,1.592-3.784,2.103c-1.48,0.514-3.129,0.769-4.948,0.769c-2.734,0-5.159-0.521-7.283-1.564
	c-2.127-1.044-3.928-2.402-5.407-4.07L279.167,41.273z"/>
<path fill="#FFFFFF" d="M306.137,10.547h2.617v37.497h-2.617V10.547z"/>
<path fill="#FFFFFF" d="M312.734,10.547h2.621v35.221h17.297v2.276h-19.918V10.547z"/>
</svg>
